<?xml version="1.0" encoding="UTF-8" standalone="no"?>
<!-- Created with Inkscape (http://www.inkscape.org/) -->

<svg
   xmlns:dc="http://purl.org/dc/elements/1.1/"
   xmlns:cc="http://creativecommons.org/ns#"
   xmlns:rdf="http://www.w3.org/1999/02/22-rdf-syntax-ns#"
   xmlns:svg="http://www.w3.org/2000/svg"
   xmlns="http://www.w3.org/2000/svg"
   xmlns:xlink="http://www.w3.org/1999/xlink"
   xmlns:sodipodi="http://sodipodi.sourceforge.net/DTD/sodipodi-0.dtd"
   xmlns:inkscape="http://www.inkscape.org/namespaces/inkscape"
   width="114.3"
   height="114.3"
   id="svg2"
   sodipodi:version="0.32"
   inkscape:version="0.46+devel r21908"
   version="1.0"
   sodipodi:docname="button_atrium4.svg"
   inkscape:output_extension="org.inkscape.output.svg.inkscape">
  <defs
     id="defs4">
    <inkscape:perspective
       sodipodi:type="inkscape:persp3d"
       inkscape:vp_x="0 : 57.150002 : 1"
       inkscape:vp_y="0 : 1000 : 0"
       inkscape:vp_z="114.3 : 57.150002 : 1"
       inkscape:persp3d-origin="57.150002 : 38.100001 : 1"
       id="perspective10433" />
    <linearGradient
       id="linearGradient3847">
      <stop
         id="stop3849"
         offset="0"
         style="stop-color:#d2d2d2;stop-opacity:1" />
      <stop
         id="stop3851"
         offset="1"
         style="stop-color:#9c9c9c;stop-opacity:1" />
    </linearGradient>
    <linearGradient
       inkscape:collect="always"
       xlink:href="#linearGradient3847"
       id="linearGradient9075"
       gradientUnits="userSpaceOnUse"
       x1="525.14325"
       y1="809.36969"
       x2="672.89886"
       y2="809.36969"
       gradientTransform="matrix(0.1092019,0,0,0.1092019,-30.682288,-50.431113)" />
    <linearGradient
       inkscape:collect="always"
       id="linearGradient3973">
      <stop
         style="stop-color:#ffffff;stop-opacity:1"
         offset="0"
         id="stop3975" />
      <stop
         style="stop-color:#9c9c9c;stop-opacity:1"
         offset="1"
         id="stop3977" />
    </linearGradient>
    <linearGradient
       inkscape:collect="always"
       xlink:href="#linearGradient3973"
       id="linearGradient9055"
       gradientUnits="userSpaceOnUse"
       x1="770.67645"
       y1="1181.7915"
       x2="978.63989"
       y2="1406.3151"
       gradientTransform="matrix(0.1617239,0,0,0.1617239,-75.478327,-110.97721)" />
    <linearGradient
       inkscape:collect="always"
       id="linearGradient3795">
      <stop
         style="stop-color:#ffffb4;stop-opacity:1"
         offset="0"
         id="stop3797" />
      <stop
         style="stop-color:#ffff00;stop-opacity:1"
         offset="1"
         id="stop3799" />
    </linearGradient>
    <linearGradient
       id="linearGradient3477"
       inkscape:collect="always">
      <stop
         id="stop3479"
         offset="0"
         style="stop-color:#15649b;stop-opacity:1" />
      <stop
         id="stop3481"
         offset="1"
         style="stop-color:#2187ff;stop-opacity:1" />
    </linearGradient>
    <linearGradient
       id="linearGradient3945"
       inkscape:collect="always">
      <stop
         id="stop3947"
         offset="0"
         style="stop-color:#ffffff;stop-opacity:1;" />
      <stop
         id="stop3949"
         offset="1"
         style="stop-color:#e0e0e0;stop-opacity:1" />
    </linearGradient>
    <linearGradient
       inkscape:collect="always"
       xlink:href="#linearGradient3945"
       id="linearGradient15834"
       gradientUnits="userSpaceOnUse"
       x1="440.4317"
       y1="659.13629"
       x2="440.4317"
       y2="675.13629" />
    <linearGradient
       inkscape:collect="always"
       xlink:href="#linearGradient3945"
       id="linearGradient12879"
       gradientUnits="userSpaceOnUse"
       x1="440.4317"
       y1="659.13629"
       x2="440.4317"
       y2="675.13629" />
    <linearGradient
       inkscape:collect="always"
       xlink:href="#linearGradient3795"
       id="linearGradient21968"
       gradientUnits="userSpaceOnUse"
       gradientTransform="matrix(-1.4959172e-2,5.8757668e-3,-5.8757668e-3,-1.4959172e-2,273.27639,127.81644)"
       x1="8920.5146"
       y1="10443.72"
       x2="10214.677"
       y2="9626.6514" />
    <linearGradient
       inkscape:collect="always"
       xlink:href="#linearGradient3477"
       id="linearGradient21970"
       gradientUnits="userSpaceOnUse"
       gradientTransform="matrix(1.75,0,0,2.75,-1400,0)"
       x1="822.18658"
       y1="30.722183"
       x2="830.63049"
       y2="15.791824" />
    <inkscape:perspective
       id="perspective9756"
       inkscape:persp3d-origin="0.5 : 0.33333333 : 1"
       inkscape:vp_z="1 : 0.5 : 1"
       inkscape:vp_y="0 : 1000 : 0"
       inkscape:vp_x="0 : 0.5 : 1"
       sodipodi:type="inkscape:persp3d" />
    <path
       style="opacity:0.3;fill:none;stroke:#000000;stroke-width:0.35433072;stroke-linecap:round;stroke-linejoin:round;stroke-miterlimit:4;stroke-opacity:1;stroke-dashoffset:0;marker:none;visibility:visible;display:inline;overflow:visible;enable-background:accumulate"
       d="M 104.48768,43.583453 C 97.276687,17.414362 70.216278,2.0456514 44.046565,9.2564763 22.841714,15.099279 8.1003321,34.318488 7.9539035,56.312602"
       id="path9417"
       inkscape:transform-center-x="0.92918557"
       inkscape:transform-center-y="-25.253403" />
  </defs>
  <sodipodi:namedview
     id="base"
     pagecolor="#ffffff"
     bordercolor="#666666"
     borderopacity="1.0"
     gridtolerance="10000"
     guidetolerance="10"
     objecttolerance="10"
     inkscape:pageopacity="0.0"
     inkscape:pageshadow="2"
     inkscape:zoom="8"
     inkscape:cx="31.453816"
     inkscape:cy="43.336576"
     inkscape:document-units="px"
     inkscape:current-layer="layer2"
     showgrid="false"
     units="in"
     inkscape:window-width="1680"
     inkscape:window-height="998"
     inkscape:window-x="0"
     inkscape:window-y="0"
     inkscape:window-maximized="0">
    <inkscape:grid
       type="xygrid"
       id="grid13396"
       visible="true"
       enabled="true" />
  </sodipodi:namedview>
  <metadata
     id="metadata7">
    <rdf:RDF>
      <cc:Work
         rdf:about="">
        <dc:format>image/svg+xml</dc:format>
        <dc:type
           rdf:resource="http://purl.org/dc/dcmitype/StillImage" />
      </cc:Work>
    </rdf:RDF>
  </metadata>
  <g
     inkscape:groupmode="layer"
     id="layer2"
     inkscape:label="button">
    <path
       transform="matrix(3.5169231,0,0,2.4618462,-99.227476,-99.388252)"
       d="m 60.714287,63.585716 a 16.25,23.214285 0 1 1 -32.5,0 16.25,23.214285 0 1 1 32.5,0 z"
       sodipodi:ry="23.214285"
       sodipodi:rx="16.25"
       sodipodi:cy="63.585716"
       sodipodi:cx="44.464287"
       id="path8684"
       style="fill:url(#linearGradient21970);fill-opacity:1;fill-rule:nonzero;stroke:none;stroke-width:0.33985066;marker:none;visibility:visible;display:inline;overflow:visible;enable-background:accumulate"
       sodipodi:type="arc" />
    <path
       style="fill:url(#linearGradient21968);fill-opacity:1;stroke:none;display:inline"
       d="m 82.924123,54.900712 c -1.107027,1.388846 -2.352538,2.603576 -3.697072,3.64579 1.854574,-6.045374 -2.143902,-14.827191 -10.154403,-21.211317 -8.010495,-6.384125 -17.458533,-8.318728 -22.93833,-5.162576 0.716119,-1.543027 1.622506,-3.028034 2.729534,-4.41688 7.492212,-9.399547 21.200146,-10.948144 30.599833,-3.456877 9.399689,7.49127 10.952649,21.202311 3.460438,30.60186 z"
       id="path3953"
       sodipodi:nodetypes="ccscssc" />
    <path
       style="fill:none;stroke:#000000;stroke-width:1;stroke-linecap:butt;stroke-linejoin:miter;stroke-miterlimit:0;stroke-opacity:0;stroke-dasharray:none;stroke-dashoffset:0;marker:none;visibility:visible;display:inline;overflow:visible;enable-background:accumulate"
       d="m 5,59.300003 c 10,64.999997 95,64.999997 105,0"
       id="path13413"
       sodipodi:nodetypes="cc" />
    <path
       style="fill:url(#linearGradient9055);fill-opacity:1;stroke:none;display:inline"
       d="m 53.851074,56.484848 c 5.995376,1.680438 4.065273,7.426166 4.065273,7.426166 l 9.256254,9.508109 c 0,0 7.204431,-7.547513 13.60838,2.74453 2.744535,-5.374735 13.379669,-7.433135 18.525699,-2.630188 2.17448,-5.719503 8.49924,-10.89037 14.74945,-7.390579 C 109.45323,89.951276 91.391412,113.49362 58,114.3 c -7,0 -8.369486,-8.40486 -1.805596,-10.11909 0,0 -4.438591,-12.542052 7.204446,-13.608373 -1.829696,-3.08763 -3.087616,-7.204453 1.829699,-8.91979 L 54.600016,67.227348 c 0,0 -7.059461,1.091204 -7.290883,-5.212334 3.888121,-7.204434 2.299508,-3.765974 6.541941,-5.530166 z"
       id="path3876"
       sodipodi:nodetypes="ccccccccccccc" />
    <g
       id="g3872"
       transform="matrix(0.08630422,-0.06690771,0.06690771,0.08630422,-52.276601,-5.2740886)"
       style="fill:#292929;fill-opacity:1;display:inline">
      <path
         sodipodi:nodetypes="csscc"
         id="path3866"
         d="m 342.23968,1041.0751 c 0,0 -81.31728,0 -99.70205,0 -11.33578,0 3.16878,-49.88686 27.57716,-69.29642 24.36179,-19.37251 57.27565,-116.67262 57.27565,-116.67262 l 14.84924,185.96904 z"
         style="fill:#292929;fill-opacity:1;stroke:none" />
      <path
         style="fill:#292929;fill-opacity:1;stroke:none"
         d="m 423.88199,1041.0751 c 0,0 81.31728,0 99.70205,0 11.33578,0 -3.16878,-49.88686 -27.57716,-69.29642 -24.36179,-19.37251 -57.27565,-116.67262 -57.27565,-116.67262 l -14.84924,185.96904 z"
         id="path3870"
         sodipodi:nodetypes="csscc" />
    </g>
    <rect
       style="fill:#4a4a4a;fill-opacity:1;stroke:none;display:inline"
       id="rect3857"
       width="11.751642"
       height="7.5490685"
       x="-2.1530955"
       y="71.901283"
       rx="1.011731"
       ry="1.011731"
       transform="matrix(0.7903179,-0.612697,0.612697,0.7903179,0,0)" />
    <path
       style="fill:#ffffff;fill-opacity:1;stroke:none;display:inline"
       d="m 28.532101,30.687523 c 4.002121,-3.10266 10.616036,2.01735 13.044349,5.149639 l 12.435348,16.040363 c 2.428313,3.132289 -0.36375,4.738392 -3.496034,7.166724 -3.132297,2.428312 -5.383547,4.732051 -7.81186,1.599781 L 30.268557,44.603652 C 27.840243,41.471366 24.529973,33.790188 28.532101,30.687523 z"
       id="rect3851"
       sodipodi:nodetypes="cccsccz" />
    <path
       style="fill:#4a4a4a;fill-opacity:1;stroke:none;display:inline"
       d="m 37.326243,35.934079 c 0,0 -1.179585,1.209904 -2.809273,2.473327 -1.629685,1.263417 -3.095382,2.104281 -3.095382,2.104281 -1.263425,-1.629686 -0.966165,-3.977714 0.66352,-5.241131 1.629688,-1.263421 3.977712,-0.966161 5.241135,0.663523 z"
       id="path3854"
       sodipodi:nodetypes="csssc" />
    <rect
       style="fill:#a0a0a0;fill-opacity:1;stroke:none;display:inline"
       id="rect3859"
       width="6.8723507"
       height="10.347135"
       x="0.31110013"
       y="59.729561"
       rx="1.011731"
       ry="1.011731"
       transform="matrix(0.7903179,-0.612697,0.612697,0.7903179,0,0)" />
    <path
       style="fill:url(#linearGradient9075);fill-opacity:1;stroke:none;display:inline"
       d="m 28.532278,30.687757 c -4.002121,3.102665 -0.690025,10.784093 1.738286,13.916379 l 1.223162,1.577749 c -2.224596,-2.8695 -5.119422,-10.012702 -1.117298,-13.115364 4.002129,-3.102663 10.198563,1.48096 12.42315,4.350455 l -1.22316,-1.57775 C 39.148106,32.706941 32.53441,27.585095 28.532278,30.687757 z"
       id="path3864" />
    <path
       sodipodi:type="arc"
       style="fill:#ffffff;fill-opacity:1;stroke:none;display:inline"
       id="path3878"
       sodipodi:cx="836.5"
       sodipodi:cy="1217"
       sodipodi:rx="23.5"
       sodipodi:ry="23.5"
       d="m 860,1217 a 23.5,23.5 0 1 1 -47,0 23.5,23.5 0 1 1 47,0 z"
       transform="matrix(0.1617239,0,0,0.1617239,-79.588205,-114.86855)" />
    <path
       sodipodi:type="arc"
       style="fill:#b0b0b0;fill-opacity:1;stroke:none;display:inline"
       id="path3880"
       sodipodi:cx="836.5"
       sodipodi:cy="1217"
       sodipodi:rx="23.5"
       sodipodi:ry="23.5"
       d="m 860,1217 a 23.5,23.5 0 1 1 -47,0 23.5,23.5 0 1 1 47,0 z"
       transform="matrix(0.1049486,0,0,0.1049486,-34.286481,-55.328437)" />
    <path
       sodipodi:type="arc"
       style="fill:#ffffff;fill-opacity:1;stroke:none;display:inline"
       id="path3882"
       sodipodi:cx="836.5"
       sodipodi:cy="1217"
       sodipodi:rx="23.5"
       sodipodi:ry="23.5"
       d="m 860,1217 a 23.5,23.5 0 1 1 -47,0 23.5,23.5 0 1 1 47,0 z"
       transform="matrix(0.1531217,0,0,0.1531217,-61.886837,-124.52693)" />
    <path
       style="opacity:0;fill:none;stroke:#000000;stroke-width:0.35433072;stroke-linecap:round;stroke-linejoin:round;stroke-miterlimit:4;stroke-opacity:1;stroke-dashoffset:0;marker:none;visibility:visible;display:inline;overflow:visible;enable-background:accumulate"
       d="M 8.0569187,53.305994 C 5.6612882,80.344499 25.63871,104.20588 52.677739,106.60189 74.58698,108.54332 95.118577,95.692651 102.9471,75.138411"
       id="path9478"
       inkscape:transform-center-x="1.7453931"
       inkscape:transform-center-y="22.900514" />
    <text
       transform="matrix(-0.93686171,-0.34970008,0.34970008,-0.93686171,90.706287,130.67701)"
       xml:space="preserve"
       style="font-size:16px;font-style:normal;font-variant:normal;font-weight:normal;font-stretch:normal;text-align:start;line-height:100%;writing-mode:lr-tb;text-anchor:start;fill:#ffffff;fill-opacity:1;stroke:none;font-family:Liberation Sans;-inkscape-font-specification:Liberation Sans"
       id="text9451"
       sodipodi:linespacing="100%"
       inkscape:transform-center-x="38.853357"
       inkscape:transform-center-y="17.85612"><textPath
         xlink:href="#path9417"
         id="textPath9458"
         style="font-size:4.25px;font-weight:bold;letter-spacing:0.77704">OPENATRIUM.COM</textPath></text>
  </g>
  <g
     inkscape:label="template"
     inkscape:groupmode="layer"
     id="layer1"
     style="opacity:0.3;display:none"
     sodipodi:insensitive="true">
    <path
       transform="matrix(3.5169231,0,0,2.4618462,-99.227476,-99.388252)"
       d="m 60.714287,63.585716 a 16.25,23.214285 0 1 1 -32.5,0 16.25,23.214285 0 1 1 32.5,0 z"
       sodipodi:ry="23.214285"
       sodipodi:rx="16.25"
       sodipodi:cy="63.585716"
       sodipodi:cx="44.464287"
       id="path8621"
       style="fill:none;stroke:#000000;stroke-width:0.12041952;stroke-linecap:round;stroke-linejoin:round;stroke-miterlimit:4;stroke-opacity:1;stroke-dasharray:none;stroke-dashoffset:0;marker:none;visibility:visible;display:inline;overflow:visible;enable-background:accumulate"
       sodipodi:type="arc" />
    <path
       sodipodi:type="arc"
       style="fill:none;stroke:#000000;stroke-width:0.1662313;stroke-linecap:round;stroke-linejoin:round;stroke-miterlimit:4;stroke-opacity:1;stroke-dasharray:none;stroke-dashoffset:0;marker:none;visibility:visible;display:inline;overflow:visible;enable-background:accumulate"
       id="path7849"
       sodipodi:cx="44.464287"
       sodipodi:cy="63.585716"
       sodipodi:rx="16.25"
       sodipodi:ry="23.214285"
       d="m 60.714287,63.585716 a 16.25,23.214285 0 1 1 -32.5,0 16.25,23.214285 0 1 1 32.5,0 z"
       transform="matrix(2.5476923,0,0,1.7833847,-56.13132,-56.247792)" />
  </g>
</svg>
