<?xml version="1.0" encoding="UTF-8" standalone="no"?>
<!-- Created with Inkscape (http://www.inkscape.org/) -->
<svg
   xmlns:dc="http://purl.org/dc/elements/1.1/"
   xmlns:cc="http://creativecommons.org/ns#"
   xmlns:rdf="http://www.w3.org/1999/02/22-rdf-syntax-ns#"
   xmlns:svg="http://www.w3.org/2000/svg"
   xmlns="http://www.w3.org/2000/svg"
   xmlns:xlink="http://www.w3.org/1999/xlink"
   xmlns:sodipodi="http://sodipodi.sourceforge.net/DTD/sodipodi-0.dtd"
   xmlns:inkscape="http://www.inkscape.org/namespaces/inkscape"
   width="600"
   height="300"
   id="svg10564"
   sodipodi:version="0.32"
   inkscape:version="0.46"
   version="1.0"
   sodipodi:docname="atrium_logo.sv"
   inkscape:output_extension="org.inkscape.output.svg.inkscape">
  <defs
     id="defs10566">
    <linearGradient
       y2="220.14908"
       x2="300.55029"
       y1="202.64908"
       x1="300.55029"
       gradientTransform="matrix(0.9142857,0,0,0.9142857,-24.78884,22.72085)"
       gradientUnits="userSpaceOnUse"
       id="linearGradient3782"
       xlink:href="#linearGradient3945"
       inkscape:collect="always" />
    <linearGradient
       y2="597.53125"
       x2="413.35345"
       y1="588.2088"
       x1="409.62469"
       gradientTransform="translate(-328.7571,-387.3627)"
       gradientUnits="userSpaceOnUse"
       id="linearGradient3780"
       xlink:href="#linearGradient3318"
       inkscape:collect="always" />
    <linearGradient
       y2="675.13629"
       x2="440.4317"
       y1="659.13629"
       x1="440.4317"
       gradientUnits="userSpaceOnUse"
       id="linearGradient3776"
       xlink:href="#linearGradient3945"
       inkscape:collect="always" />
    <linearGradient
       y2="675.13629"
       x2="440.4317"
       y1="659.13629"
       x1="440.4317"
       gradientUnits="userSpaceOnUse"
       id="linearGradient3774"
       xlink:href="#linearGradient3945"
       inkscape:collect="always" />
    <linearGradient
       y2="675.13629"
       x2="440.4317"
       y1="659.13629"
       x1="440.4317"
       gradientUnits="userSpaceOnUse"
       id="linearGradient3772"
       xlink:href="#linearGradient3945"
       inkscape:collect="always"
       gradientTransform="matrix(2.0211242,0,0,2.0211242,-691.2233,-1164.2588)" />
    <linearGradient
       id="linearGradient3945"
       inkscape:collect="always">
      <stop
         id="stop3947"
         offset="0"
         style="stop-color:#ffffff;stop-opacity:1;" />
      <stop
         id="stop3949"
         offset="1"
         style="stop-color:#e0e0e0;stop-opacity:1" />
    </linearGradient>
    <linearGradient
       inkscape:collect="always"
       xlink:href="#linearGradient3945"
       id="linearGradient15834"
       gradientUnits="userSpaceOnUse"
       x1="440.4317"
       y1="659.13629"
       x2="440.4317"
       y2="675.13629" />
    <linearGradient
       id="linearGradient3318"
       inkscape:collect="always">
      <stop
         id="stop3320"
         offset="0"
         style="stop-color:#8aff21;stop-opacity:1" />
      <stop
         id="stop3322"
         offset="1"
         style="stop-color:#16c800;stop-opacity:1" />
    </linearGradient>
    <linearGradient
       y2="597.03473"
       x2="426.09375"
       y1="587.68884"
       x1="437.35034"
       gradientTransform="matrix(1.0526403,0,0,1.0526403,-352.0142,-422.32573)"
       gradientUnits="userSpaceOnUse"
       id="linearGradient3770"
       xlink:href="#linearGradient3318"
       inkscape:collect="always" />
    <linearGradient
       id="linearGradient3477"
       inkscape:collect="always">
      <stop
         id="stop3479"
         offset="0"
         style="stop-color:#15649b;stop-opacity:1" />
      <stop
         id="stop3481"
         offset="1"
         style="stop-color:#2187ff;stop-opacity:1" />
    </linearGradient>
    <inkscape:perspective
       sodipodi:type="inkscape:persp3d"
       inkscape:vp_x="0 : 526.18109 : 1"
       inkscape:vp_y="0 : 1000 : 0"
       inkscape:vp_z="744.09448 : 526.18109 : 1"
       inkscape:persp3d-origin="372.04724 : 350.78739 : 1"
       id="perspective10572" />
    <linearGradient
       inkscape:collect="always"
       xlink:href="#linearGradient3477"
       id="linearGradient10609"
       gradientUnits="userSpaceOnUse"
       gradientTransform="matrix(0.75,0,0,1.875,-600,-2.0715553e-5)"
       x1="400"
       y1="0"
       x2="400"
       y2="-160" />
    <linearGradient
       inkscape:collect="always"
       xlink:href="#linearGradient3945"
       id="linearGradient10615"
       gradientUnits="userSpaceOnUse"
       gradientTransform="matrix(2.0211244,0,0,2.0211244,-691.22337,-1164.2589)"
       x1="440.4317"
       y1="659.13629"
       x2="440.4317"
       y2="675.13629" />
    <linearGradient
       inkscape:collect="always"
       xlink:href="#linearGradient3945"
       id="linearGradient10618"
       gradientUnits="userSpaceOnUse"
       gradientTransform="matrix(2.0211246,0,0,2.0211246,-691.22344,-1164.259)"
       x1="440.4317"
       y1="659.13629"
       x2="440.4317"
       y2="675.13629" />
  </defs>
  <sodipodi:namedview
     id="base"
     pagecolor="#ffffff"
     bordercolor="#666666"
     borderopacity="1.0"
     gridtolerance="10000"
     guidetolerance="10"
     objecttolerance="10"
     inkscape:pageopacity="0.0"
     inkscape:pageshadow="2"
     inkscape:zoom="1"
     inkscape:cx="390.10162"
     inkscape:cy="125.32359"
     inkscape:document-units="px"
     inkscape:current-layer="layer1"
     showgrid="false">
    <inkscape:grid
       type="xygrid"
       id="grid10611"
       visible="true"
       enabled="true" />
  </sodipodi:namedview>
  <metadata
     id="metadata10569">
    <rdf:RDF>
      <cc:Work
         rdf:about="">
        <dc:format>image/svg+xml</dc:format>
        <dc:type
           rdf:resource="http://purl.org/dc/dcmitype/StillImage" />
      </cc:Work>
    </rdf:RDF>
  </metadata>
  <g
     inkscape:label="Layer 1"
     inkscape:groupmode="layer"
     id="layer1">
    <rect
       style="opacity:1;fill:url(#linearGradient10609);fill-opacity:1;fill-rule:nonzero;stroke:none;stroke-width:1;stroke-linecap:butt;stroke-linejoin:miter;marker:none;marker-start:none;marker-mid:none;marker-end:none;stroke-miterlimit:0;stroke-dasharray:none;stroke-dashoffset:0;stroke-opacity:1;visibility:visible;display:inline;overflow:visible;enable-background:accumulate"
       id="rect3475"
       width="600"
       height="300"
       x="-600"
       y="-300"
       transform="scale(-1,-1)" />
    <g
       style="display:inline;enable-background:new"
       transform="matrix(2.4999999,0,0,2.4999999,-1342.6306,-71.782607)"
       id="g3708">
      <g
         style="display:inline"
         id="g3515"
         transform="matrix(0.8084497,0,0,0.8084497,527.70033,-72.269502)">
        <path
           style="fill:url(#linearGradient3770);fill-opacity:1;fill-rule:nonzero;stroke:none;stroke-width:1;stroke-linecap:butt;stroke-linejoin:miter;marker:none;marker-start:none;marker-mid:none;marker-end:none;stroke-miterlimit:0;stroke-dasharray:none;stroke-dashoffset:0;stroke-opacity:1;visibility:visible;display:inline;overflow:visible;enable-background:accumulate"
           d="M 100.95009,187.74509 C 100.95009,187.74509 95.60725,188.83886 93.91055,192.81093 C 93.13065,194.63672 93.08585,196.23276 93.25265,197.44912 L 79.56831,207.15315 L 79.56831,211.36371 L 102.33167,211.36371 L 102.33167,210.67291 C 106.25855,210.98826 109.83173,207.90973 109.83173,207.90973 C 109.83173,207.90973 107.7848,205.14008 105.06195,203.66628 C 112.55451,200.9594 111.98096,191.79906 111.98096,191.79906 C 111.98097,191.79907 104.37515,191.16875 100.8843,195.607 C 102.24828,192.34476 100.95009,187.74509 100.95009,187.74509 z"
           id="path3463"
           sodipodi:nodetypes="cscccccccccc" />
        <g
           id="g3465"
           style="fill:url(#linearGradient15834);fill-opacity:1"
           transform="translate(-330.43169,-451.13629)">
          <path
             style="font-size:76.80299377000000050px;font-style:italic;font-variant:normal;font-weight:normal;font-stretch:normal;text-align:start;line-height:100%;writing-mode:lr-tb;text-anchor:start;fill:url(#linearGradient10618);fill-opacity:1;fill-rule:nonzero;stroke:none;stroke-width:3.11843680999999995;stroke-linecap:butt;stroke-linejoin:miter;marker:none;marker-start:none;marker-mid:none;marker-end:none;stroke-miterlimit:0;stroke-dashoffset:0;stroke-opacity:0.22471911999999999;visibility:visible;display:inline;overflow:visible;enable-background:accumulate;font-family:Parisine;-inkscape-font-specification:Parisine Italic"
             d="M 146.1875 123.625 L 133.625 163.21875 C 132.70207 162.87812 131.72828 162.6875 130.6875 162.6875 C 125.96216 162.6875 122.125 166.52467 122.125 171.25 C 122.125 174.9697 124.49609 178.10129 127.8125 179.28125 L 117.03125 200 L 130.9375 200 L 138.4375 185.65625 L 178.625 185.65625 L 186 200 L 199.90625 200 L 186.0625 173.40625 L 138.9375 173.40625 C 139.11911 172.71259 139.25 172.00035 139.25 171.25 C 139.25 170.87816 139.20231 170.51563 139.15625 170.15625 L 184 158.125 L 146.1875 123.625 z M 130.6875 167 C 133.03277 166.99999 134.9375 168.90472 134.9375 171.25 C 134.9375 173.59528 133.03278 175.5 130.6875 175.5 C 128.34222 175.5 126.4375 173.59528 126.4375 171.25 C 126.4375 168.90472 128.34222 167 130.6875 167 z "
             transform="matrix(0.4947742,0,0,0.4947742,341.99942,576.04517)"
             id="path3467" />
        </g>
        <path
           style="fill:url(#linearGradient3780);fill-opacity:1;fill-rule:nonzero;stroke:none;stroke-width:1;stroke-linecap:butt;stroke-linejoin:miter;marker:none;marker-start:none;marker-mid:none;marker-end:none;stroke-miterlimit:0;stroke-dasharray:none;stroke-dashoffset:0;stroke-opacity:1;visibility:visible;display:inline;overflow:visible;enable-background:accumulate"
           d="M 83.96281,195.70905 C 83.96281,195.70905 81.63776,199.64499 84.00214,204.79816 C 82.30623,203.87376 79.19085,204.1072 79.19085,204.1072 C 79.19085,204.1072 78.5872,208.07642 81.20882,209.93591 C 81.20882,209.93591 88.39916,210.23108 88.39916,210.23105 C 88.36403,210.25488 88.66235,209.46894 88.3054,208.10605 C 88.78393,208.25842 89.11791,208.29355 89.11791,208.29355 C 89.08833,208.2957 89.31907,208.09349 89.61791,207.66855 C 90.26833,208.70055 90.96165,209.19981 90.96165,209.1998 C 90.8902,209.16519 92.23365,209.17644 94.07511,205.43243 C 95.91657,201.68844 94.06231,197.89652 94.06231,197.89652 C 94.06231,197.89652 90.72375,198.12682 89.44199,200.13497 C 87.65256,196.33451 83.96281,195.70905 83.96281,195.70905 z"
           id="path3475"
           sodipodi:nodetypes="cccsscccssccc" />
        <path
           id="path3477"
           d="M 114.94471,191.86371 L 114.09535,197.20657 L 119.72545,197.20657 L 119.72545,223.86371 L 125.06831,223.86371 L 125.06831,197.20657 L 134.43973,197.20657 L 134.43973,191.86371 L 114.94471,191.86371 z M 140.52544,191.86371 L 140.52544,223.86371 L 145.83973,223.86371 L 145.83973,197.20657 L 156.52544,197.20657 C 157.97019,197.20659 159.25169,197.73288 160.29687,198.778 C 161.34199,199.82317 161.83971,201.07611 161.83973,202.52085 C 161.8397,203.99638 161.34199,205.24715 160.29687,206.29228 C 159.25169,207.33745 157.97019,207.86373 156.52544,207.86371 L 149.09687,207.83514 L 149.09687,213.20657 L 154.89687,213.20657 L 161.06831,223.86371 L 167.18259,223.86371 L 160.61116,212.378 C 162.51699,211.60952 164.06725,210.33235 165.29687,208.54942 C 166.55717,206.7358 167.18256,204.73413 167.18259,202.52085 C 167.18256,199.60061 166.15857,197.06832 164.06831,194.978 C 161.97798,192.88772 159.4457,191.86375 156.52544,191.86371 L 140.52544,191.86371 z M 173.61116,191.86371 L 173.61116,223.86371 L 178.92545,223.86371 L 178.92545,191.86371 L 173.61116,191.86371 z M 185.41115,191.86371 L 185.41115,210.54942 C 185.41115,214.20745 186.68618,217.33439 189.26831,219.978 C 191.91189,222.56013 195.04102,223.86371 198.66831,223.86371 C 202.32629,223.86371 205.4818,222.56014 208.12544,219.978 C 210.73829,217.36513 212.0397,214.23819 212.03974,210.54942 L 212.03974,191.86371 L 206.69688,191.86371 L 206.69688,210.54942 C 206.69684,212.73195 205.89529,214.58173 204.29688,216.14942 C 202.75986,217.71716 200.88153,218.52086 198.66831,218.52085 C 196.45502,218.52086 194.57888,217.71717 193.01115,216.14942 C 191.47418,214.61246 190.69687,212.76269 190.69688,210.54942 L 190.69688,191.86371 L 185.41115,191.86371 z M 218.4683,191.86371 L 218.4683,223.86371 L 223.78259,223.86371 L 223.78259,204.74942 L 234.4683,215.40657 L 245.12544,204.74942 L 245.12544,223.86371 L 250.52544,223.86371 L 250.52544,191.86371 L 234.4683,207.86371 L 218.4683,191.86371 z"
           style="font-size:74.92795563px;font-style:normal;font-variant:normal;font-weight:normal;font-stretch:normal;text-align:start;line-height:100%;writing-mode:lr-tb;text-anchor:start;opacity:0.98999999;fill:url(#linearGradient3782);fill-opacity:1;fill-rule:nonzero;stroke:none;stroke-width:1;stroke-linecap:butt;stroke-linejoin:miter;marker:none;marker-start:none;marker-mid:none;marker-end:none;stroke-miterlimit:0;stroke-dashoffset:0;stroke-opacity:0.22471912;visibility:visible;display:inline;overflow:visible;enable-background:accumulate;font-family:Museo Sans;-inkscape-font-specification:Museo Sans"
           sodipodi:nodetypes="ccccccccccccccsssccccccccssccccccccccsccccccsscccccccccccccc" />
        <text
           sodipodi:linespacing="100%"
           id="text3479"
           y="184.82605"
           x="88.699585"
           style="font-size:19.52759933px;font-style:normal;font-variant:normal;font-weight:bold;font-stretch:normal;text-align:start;line-height:100%;writing-mode:lr-tb;text-anchor:start;fill:#2cb9e7;fill-opacity:1;fill-rule:nonzero;stroke:none;stroke-width:3.11843681;stroke-linecap:butt;stroke-linejoin:miter;marker:none;marker-start:none;marker-mid:none;marker-end:none;stroke-miterlimit:0;stroke-dasharray:none;stroke-dashoffset:0;stroke-opacity:0.22471912;visibility:visible;display:inline;overflow:visible;enable-background:accumulate;font-family:Telegrafico;-inkscape-font-specification:Telegrafico Bold"
           xml:space="preserve"><tspan
             style="font-size:19.52759933px;font-style:normal;font-variant:normal;font-weight:bold;font-stretch:normal;text-align:start;line-height:100%;writing-mode:lr-tb;text-anchor:start;fill:#2cb9e7;fill-opacity:1;font-family:Telegrafico;-inkscape-font-specification:Telegrafico Bold"
             y="184.82605"
             x="88.699585"
             id="tspan3481"
             sodipodi:role="line">open</tspan></text>
      </g>
    </g>
  </g>
</svg>
