<?xml version="1.0" encoding="UTF-8" standalone="no"?>
<!-- Created with Inkscape (http://www.inkscape.org/) -->

<svg
   xmlns:dc="http://purl.org/dc/elements/1.1/"
   xmlns:cc="http://creativecommons.org/ns#"
   xmlns:rdf="http://www.w3.org/1999/02/22-rdf-syntax-ns#"
   xmlns:svg="http://www.w3.org/2000/svg"
   xmlns="http://www.w3.org/2000/svg"
   xmlns:xlink="http://www.w3.org/1999/xlink"
   xmlns:sodipodi="http://sodipodi.sourceforge.net/DTD/sodipodi-0.dtd"
   xmlns:inkscape="http://www.inkscape.org/namespaces/inkscape"
   width="180"
   height="360"
   id="svg38602"
   version="1.1"
   inkscape:version="0.47 r22583"
   sodipodi:docname="sticker_back.svg"
   inkscape:output_extension="org.inkscape.output.svg.inkscape"
   inkscape:export-filename="/tmp/sticker_atrium3.png"
   inkscape:export-xdpi="89.994781"
   inkscape:export-ydpi="89.994781">
  <defs
     id="defs38604">
    <linearGradient
       inkscape:collect="always"
       xlink:href="#linearGradient3945-2-4"
       id="linearGradient15834-6"
       gradientUnits="userSpaceOnUse"
       x1="440.4317"
       y1="659.13629"
       x2="440.4317"
       y2="675.13629" />
    <linearGradient
       id="linearGradient3945-2-4"
       inkscape:collect="always">
      <stop
         id="stop3947-4-8"
         offset="0"
         style="stop-color:#ffffff;stop-opacity:1;" />
      <stop
         id="stop3949-6-5"
         offset="1"
         style="stop-color:#e0e0e0;stop-opacity:1" />
    </linearGradient>
    <inkscape:perspective
       id="perspective10173"
       inkscape:persp3d-origin="0.5 : 0.33333333 : 1"
       inkscape:vp_z="1 : 0.5 : 1"
       inkscape:vp_y="0 : 1000 : 0"
       inkscape:vp_x="0 : 0.5 : 1"
       sodipodi:type="inkscape:persp3d" />
    <inkscape:perspective
       id="perspective3309"
       inkscape:persp3d-origin="0.5 : 0.33333333 : 1"
       inkscape:vp_z="1 : 0.5 : 1"
       inkscape:vp_y="0 : 1000 : 0"
       inkscape:vp_x="0 : 0.5 : 1"
       sodipodi:type="inkscape:persp3d" />
    <linearGradient
       inkscape:collect="always"
       xlink:href="#linearGradient3318-9-0"
       id="linearGradient36425-5"
       gradientUnits="userSpaceOnUse"
       gradientTransform="matrix(0.85100673,0,0,0.85100673,243.11456,-413.69861)"
       x1="437.35034"
       y1="587.68884"
       x2="426.09375"
       y2="597.03473" />
    <linearGradient
       id="linearGradient3318-9-0"
       inkscape:collect="always">
      <stop
         id="stop3320-6-1"
         offset="0"
         style="stop-color:#8aff21;stop-opacity:1" />
      <stop
         id="stop3322-8-2"
         offset="1"
         style="stop-color:#16c800;stop-opacity:1" />
    </linearGradient>
    <linearGradient
       inkscape:collect="always"
       xlink:href="#linearGradient3945-2-4-9"
       id="linearGradient15834-6-7"
       gradientUnits="userSpaceOnUse"
       x1="440.4317"
       y1="659.13629"
       x2="440.4317"
       y2="675.13629" />
    <linearGradient
       id="linearGradient3945-2-4-9"
       inkscape:collect="always">
      <stop
         id="stop3947-4-8-3"
         offset="0"
         style="stop-color:#ffffff;stop-opacity:1;" />
      <stop
         id="stop3949-6-5-8"
         offset="1"
         style="stop-color:#e0e0e0;stop-opacity:1" />
    </linearGradient>
    <linearGradient
       y2="675.13629"
       x2="440.4317"
       y1="659.13629"
       x1="440.4317"
       gradientUnits="userSpaceOnUse"
       id="linearGradient3772-5-6"
       xlink:href="#linearGradient3945-2-4-9"
       inkscape:collect="always" />
    <linearGradient
       y2="675.13629"
       x2="440.4317"
       y1="659.13629"
       x1="440.4317"
       gradientUnits="userSpaceOnUse"
       id="linearGradient3774-3-2"
       xlink:href="#linearGradient3945-2-4-9"
       inkscape:collect="always" />
    <linearGradient
       y2="675.13629"
       x2="440.4317"
       y1="659.13629"
       x1="440.4317"
       gradientUnits="userSpaceOnUse"
       id="linearGradient3776-4-5"
       xlink:href="#linearGradient3945-2-4-9"
       inkscape:collect="always" />
    <linearGradient
       inkscape:collect="always"
       xlink:href="#linearGradient3318-9-0"
       id="linearGradient36417-2"
       gradientUnits="userSpaceOnUse"
       gradientTransform="matrix(0.8084497,0,0,0.8084497,261.91675,-385.43276)"
       x1="409.62469"
       y1="588.2088"
       x2="413.35345"
       y2="597.53125" />
    <linearGradient
       inkscape:collect="always"
       xlink:href="#linearGradient3945-2-4-9"
       id="linearGradient36414-6"
       gradientUnits="userSpaceOnUse"
       gradientTransform="matrix(0.739154,0,0,0.739154,507.6598,-53.900838)"
       x1="300.55029"
       y1="202.64908"
       x2="300.55029"
       y2="220.14908" />
    <linearGradient
       inkscape:collect="always"
       xlink:href="#linearGradient3318-9-0"
       id="linearGradient3157"
       gradientUnits="userSpaceOnUse"
       gradientTransform="matrix(0.85100673,0,0,0.85100673,243.11456,-413.69861)"
       x1="437.35034"
       y1="587.68884"
       x2="426.09375"
       y2="597.03473" />
    <linearGradient
       inkscape:collect="always"
       xlink:href="#linearGradient3945-2-4-9"
       id="linearGradient3159"
       gradientUnits="userSpaceOnUse"
       x1="440.4317"
       y1="659.13629"
       x2="440.4317"
       y2="675.13629" />
    <linearGradient
       inkscape:collect="always"
       xlink:href="#linearGradient3945-2-4-9"
       id="linearGradient3161"
       gradientUnits="userSpaceOnUse"
       x1="440.4317"
       y1="659.13629"
       x2="440.4317"
       y2="675.13629" />
    <linearGradient
       inkscape:collect="always"
       xlink:href="#linearGradient3945-2-4-9"
       id="linearGradient3163"
       gradientUnits="userSpaceOnUse"
       x1="440.4317"
       y1="659.13629"
       x2="440.4317"
       y2="675.13629" />
    <linearGradient
       inkscape:collect="always"
       xlink:href="#linearGradient3318-9-0"
       id="linearGradient3165"
       gradientUnits="userSpaceOnUse"
       gradientTransform="matrix(0.8084497,0,0,0.8084497,261.91675,-385.43276)"
       x1="409.62469"
       y1="588.2088"
       x2="413.35345"
       y2="597.53125" />
    <linearGradient
       inkscape:collect="always"
       xlink:href="#linearGradient3945-2-4-9"
       id="linearGradient3167"
       gradientUnits="userSpaceOnUse"
       gradientTransform="matrix(0.739154,0,0,0.739154,507.6598,-53.900838)"
       x1="300.55029"
       y1="202.64908"
       x2="300.55029"
       y2="220.14908" />
  </defs>
  <sodipodi:namedview
     id="base"
     pagecolor="#ffffff"
     bordercolor="#666666"
     borderopacity="1.0"
     inkscape:pageopacity="1"
     inkscape:pageshadow="2"
     inkscape:zoom="1"
     inkscape:cx="116.9358"
     inkscape:cy="174.9684"
     inkscape:document-units="in"
     inkscape:current-layer="layer1"
     showgrid="false"
     units="in"
     showguides="false"
     inkscape:guide-bbox="true"
     inkscape:window-width="1280"
     inkscape:window-height="752"
     inkscape:window-x="145"
     inkscape:window-y="28"
     inkscape:window-maximized="0"
     borderlayer="true"
     inkscape:showpageshadow="false"
     inkscape:snap-bbox="true"
     inkscape:snap-nodes="false">
    <inkscape:grid
       type="xygrid"
       id="grid38612"
       empspacing="4"
       visible="true"
       enabled="true"
       snapvisiblegridlinesonly="true"
       spacingx="0.125in"
       spacingy="0.125in"
       units="in" />
    <sodipodi:guide
       orientation="1,0"
       position="-11.25,0"
       id="guide38614" />
    <sodipodi:guide
       orientation="0,1"
       position="0,371.25"
       id="guide38616" />
    <sodipodi:guide
       orientation="0,1"
       position="0,-11.25"
       id="guide38620" />
  </sodipodi:namedview>
  <metadata
     id="metadata38607">
    <rdf:RDF>
      <cc:Work
         rdf:about="">
        <dc:format>image/svg+xml</dc:format>
        <dc:type
           rdf:resource="http://purl.org/dc/dcmitype/StillImage" />
        <dc:title />
      </cc:Work>
    </rdf:RDF>
  </metadata>
  <g
     inkscape:label="Layer 1"
     inkscape:groupmode="layer"
     id="layer1"
     transform="translate(0,-692.36)">
    <path
       style="fill:none;stroke:#000000;stroke-width:0.625;stroke-linecap:square;stroke-linejoin:miter;stroke-miterlimit:4;stroke-opacity:1;stroke-dasharray:none"
       d="m 0.3125,658.81802 0,22.08347"
       id="path8641"
       inkscape:export-filename="/home/aj/Projects/devseed/graphics/conferences/dcon_paris_2009/for_printers/sticker_atrium3.png"
       inkscape:export-xdpi="599.85834"
       inkscape:export-ydpi="599.85834" />
    <path
       id="path9415"
       d="m -33.4375,692.67225 21.878839,0"
       style="fill:none;stroke:#000000;stroke-width:0.625;stroke-linecap:square;stroke-linejoin:miter;stroke-miterlimit:4;stroke-opacity:1;stroke-dasharray:none"
       inkscape:export-filename="/home/aj/Projects/devseed/graphics/conferences/dcon_paris_2009/for_printers/sticker_atrium3.png"
       inkscape:export-xdpi="599.85834"
       inkscape:export-ydpi="599.85834" />
    <path
       id="path9417"
       d="m -33.43,1052.0473 21.8788,0"
       style="fill:none;stroke:#000000;stroke-width:0.625;stroke-linecap:square;stroke-linejoin:miter;stroke-miterlimit:4;stroke-opacity:1;stroke-dasharray:none"
       inkscape:export-filename="/home/aj/Projects/devseed/graphics/conferences/dcon_paris_2009/PDFs/sticker_atrium3.png"
       inkscape:export-xdpi="600.08252"
       inkscape:export-ydpi="600.08252" />
    <path
       style="fill:none;stroke:#000000;stroke-width:0.625;stroke-linecap:square;stroke-linejoin:miter;stroke-miterlimit:4;stroke-opacity:1;stroke-dasharray:none"
       d="m 179.6875,1086.0059 0,-22.0834"
       id="path9421"
       inkscape:export-filename="/home/aj/Projects/devseed/graphics/conferences/dcon_paris_2009/for_printers/sticker_atrium3.png"
       inkscape:export-xdpi="599.85834"
       inkscape:export-ydpi="599.85834" />
    <path
       id="path9423"
       d="m 213.64598,1052.0475 -22.08348,0"
       style="fill:none;stroke:#000000;stroke-width:0.625;stroke-linecap:square;stroke-linejoin:miter;stroke-miterlimit:4;stroke-opacity:1;stroke-dasharray:none"
       inkscape:export-filename="/home/aj/Projects/devseed/graphics/conferences/dcon_paris_2009/for_printers/sticker_atrium3.png"
       inkscape:export-xdpi="599.85834"
       inkscape:export-ydpi="599.85834" />
    <path
       id="path9429"
       d="m 213.64598,692.6725 -22.08348,0"
       style="fill:none;stroke:#000000;stroke-width:0.625;stroke-linecap:square;stroke-linejoin:miter;stroke-miterlimit:4;stroke-opacity:1;stroke-dasharray:none"
       inkscape:export-filename="/home/aj/Projects/devseed/graphics/conferences/dcon_paris_2009/PDFs/sticker_atrium3.png"
       inkscape:export-xdpi="600.08252"
       inkscape:export-ydpi="600.08252" />
    <path
       style="fill:none;stroke:#000000;stroke-width:0.625;stroke-linecap:square;stroke-linejoin:miter;stroke-miterlimit:4;stroke-opacity:1;stroke-dasharray:none"
       d="m 179.6875,658.71403 0,22.08347"
       id="path9431"
       inkscape:export-filename="/home/aj/Projects/devseed/graphics/conferences/dcon_paris_2009/PDFs/sticker_atrium3.png"
       inkscape:export-xdpi="600.08252"
       inkscape:export-ydpi="600.08252" />
    <path
       inkscape:export-ydpi="600.08252"
       inkscape:export-xdpi="600.08252"
       inkscape:export-filename="/home/aj/Projects/devseed/graphics/conferences/dcon_paris_2009/PDFs/sticker_atrium3.png"
       id="path9433"
       d="m 0.3125,1086.0057 0,-22.0834"
       style="fill:none;stroke:#000000;stroke-width:0.625;stroke-linecap:square;stroke-linejoin:miter;stroke-miterlimit:4;stroke-opacity:1;stroke-dasharray:none" />
    <text
       xml:space="preserve"
       style="font-size:16px;font-style:normal;font-variant:normal;font-weight:normal;font-stretch:normal;text-align:center;line-height:179.99999523%;writing-mode:lr-tb;text-anchor:middle;fill:#000000;fill-opacity:1;stroke:none;font-family:Liberation Sans;-inkscape-font-specification:Liberation Sans"
       x="89.964844"
       y="897.85999"
       id="text10203"
       sodipodi:linespacing="180%"><tspan
         sodipodi:role="line"
         x="89.964844"
         y="897.85999"
         style="font-size:13px;font-style:normal;font-variant:normal;font-weight:normal;font-stretch:normal;text-align:center;line-height:179.99999523%;letter-spacing:0.238096;writing-mode:lr-tb;text-anchor:middle;font-family:Aurulent Sans;-inkscape-font-specification:Aurulent Sans"
         id="tspan2845">Social Business Software</tspan><tspan
         sodipodi:role="line"
         x="89.964844"
         y="921.26001"
         style="font-size:13px;font-style:normal;font-variant:normal;font-weight:normal;font-stretch:normal;text-align:center;line-height:179.99999523%;letter-spacing:0.238096;writing-mode:lr-tb;text-anchor:middle;font-family:Aurulent Sans;-inkscape-font-specification:Aurulent Sans"
         id="tspan2856">+</tspan><tspan
         sodipodi:role="line"
         x="89.964844"
         y="944.65997"
         style="font-size:13px;font-style:normal;font-variant:normal;font-weight:normal;font-stretch:normal;text-align:center;line-height:179.99999523%;letter-spacing:0.238096;writing-mode:lr-tb;text-anchor:middle;font-family:Aurulent Sans;-inkscape-font-specification:Aurulent Sans"
         id="tspan2858">Open Source Hotness</tspan></text>
    <path
       style="fill:#808080;fill-opacity:1;fill-rule:nonzero;stroke:none;stroke-width:1;marker:none;visibility:visible;display:inline;overflow:visible;enable-background:accumulate"
       d="m 38.567036,750.98707 c 0,0 -4.647852,0.95149 -6.12384,4.40688 -0.678452,1.5883 -0.717426,2.97673 -0.572323,4.03486 l -11.904297,8.44174 0,3.66286 19.802328,0 0,-0.60094 c 3.416071,0.27433 6.52446,-2.40375 6.52446,-2.40375 0,0 -1.780667,-2.40938 -4.149335,-3.69147 6.517939,-2.35477 6.018992,-10.32354 6.018992,-10.32354 10e-6,0 -6.616451,-0.54832 -9.653219,3.3126 1.186556,-2.83789 0.05725,-6.83924 0.05725,-6.83924 z"
       id="path3463"
       sodipodi:nodetypes="cscccccccccc" />
    <g
       id="g3465"
       style="fill:#1a1a1a;fill-opacity:1"
       transform="matrix(0.86992122,0,0,0.86992122,-336.70113,195.2106)">
      <path
         sodipodi:nodetypes="ccccccccc"
         id="path3467"
         d="M 406.75,661.84375 399.90625,675 l 6.875,0 3.71875,-7.09375 19.875,0 3.65625,7.09375 6.875,0 -6.84375,-13.15625 -27.3125,0 z"
         style="font-size:76.80299377000000050px;font-style:italic;font-variant:normal;font-weight:normal;font-stretch:normal;text-align:start;line-height:100%;writing-mode:lr-tb;text-anchor:start;fill:#1a1a1a;fill-opacity:1;fill-rule:nonzero;stroke:none;stroke-width:3.11843680999999995;marker:none;visibility:visible;display:inline;overflow:visible;enable-background:accumulate;font-family:Parisine;-inkscape-font-specification:Parisine Italic" />
      <path
         sodipodi:nodetypes="cccc"
         inkscape:transform-center-y="-12.42117"
         inkscape:transform-center-x="-13.098305"
         id="path3469"
         d="m 414.32413,637.20497 -7.66675,24.15097 26.38185,-7.06898 -18.7151,-17.08199 z"
         style="fill:#1a1a1a;fill-opacity:1;fill-rule:nonzero;stroke:none;stroke-width:3.11843680999999995;marker:none;visibility:visible;display:inline;overflow:visible;enable-background:accumulate" />
      <path
         transform="matrix(1.6050535,0,0,1.6050535,-246.48889,-303.49855)"
         d="m 409.56809,600.77081 c 0,1.45739 -1.18145,2.63883 -2.63883,2.63883 -1.45738,0 -2.63883,-1.18144 -2.63883,-2.63883 0,-1.45738 1.18145,-2.63882 2.63883,-2.63882 1.45738,0 2.63883,1.18144 2.63883,2.63882 z"
         sodipodi:ry="2.6388278"
         sodipodi:rx="2.6388278"
         sodipodi:cy="600.77081"
         sodipodi:cx="406.92926"
         id="path3471"
         style="fill:#1a1a1a;fill-opacity:1;fill-rule:nonzero;stroke:none;stroke-width:3.11843680999999995;marker:none;visibility:visible;display:inline;overflow:visible;enable-background:accumulate"
         sodipodi:type="arc" />
    </g>
    <path
       transform="matrix(0.69299682,0,0,0.69299682,-264.94455,353.69688)"
       d="m 409.56809,600.77081 a 2.6388278,2.6388278 0 1 1 -5.27766,0 2.6388278,2.6388278 0 1 1 5.27766,0 z"
       sodipodi:ry="2.6388278"
       sodipodi:rx="2.6388278"
       sodipodi:cy="600.77081"
       sodipodi:cx="406.92926"
       id="path3473"
       style="fill:#666666;fill-opacity:1;fill-rule:nonzero;stroke:none;stroke-width:3.11843680999999995;marker:none;visibility:visible;display:inline;overflow:visible;enable-background:accumulate"
       sodipodi:type="arc" />
    <path
       style="fill:#808080;fill-opacity:1;fill-rule:nonzero;stroke:none;stroke-width:1;marker:none;visibility:visible;display:inline;overflow:visible;enable-background:accumulate"
       d="m 23.789443,757.91509 c 0,0 -2.022615,3.42396 0.03422,7.90681 -1.4753,-0.80416 -4.185437,-0.60108 -4.185437,-0.60108 0,0 -0.525128,3.45291 1.755478,5.07052 0,0 6.25502,0.25677 6.25502,0.25674 -0.03056,0.0207 0.228959,-0.66297 -0.08156,-1.84858 0.416286,0.13255 0.706826,0.16311 0.706826,0.16311 -0.02572,0.002 0.174996,-0.17403 0.434956,-0.5437 0.565812,0.89776 1.168952,1.33208 1.168952,1.33207 -0.06219,-0.0301 1.106542,-0.0204 2.708458,-3.27732 1.601928,-3.25697 -0.01108,-6.55564 -0.01108,-6.55564 0,0 -2.904286,0.20034 -4.019318,1.94727 -1.556659,-3.3061 -4.766454,-3.8502 -4.766454,-3.8502 z"
       id="path3475"
       sodipodi:nodetypes="cccsscccssccc" />
    <path
       id="path3477"
       d="m 50.741257,754.56995 -0.738881,4.64786 4.89774,0 0,23.18962 4.647874,0 0,-23.18962 8.152396,0 0,-4.64786 -16.959129,0 z m 22.253217,0 0,27.83748 4.623017,0 0,-23.18962 9.295727,0 c 1.256811,2e-5 2.371617,0.45785 3.280846,1.36702 0.909164,0.90922 1.34214,1.99918 1.342161,3.25599 -2.1e-5,1.28359 -0.432997,2.37166 -1.342161,3.28085 -0.909229,0.90921 -2.024035,1.36703 -3.280846,1.36702 l -6.462276,-0.0249 0,4.67272 5.045545,0 5.368668,9.27087 5.318934,0 -5.716626,-9.99166 c 1.657925,-0.66852 3.006532,-1.77956 4.076198,-3.33056 1.096362,-1.57771 1.640406,-3.31901 1.640428,-5.24439 -2.2e-5,-2.54037 -0.890808,-4.74327 -2.709169,-6.56168 -1.818426,-1.81838 -4.021309,-2.70915 -6.561702,-2.70919 l -13.918744,0 z m 28.781966,0 0,27.83748 4.62302,0 0,-27.83748 -4.62302,0 z m 10.26507,0 0,16.25509 c 0,3.1822 1.10917,5.90239 3.35542,8.20213 2.29971,2.24624 5.0218,3.38026 8.17726,3.38026 3.18216,0 5.9272,-1.134 8.22696,-3.38026 2.27297,-2.273 3.40509,-4.99319 3.40513,-8.20213 l 0,-16.25509 -4.64787,0 0,16.25509 c -3e-5,1.89863 -0.69731,3.50779 -2.08781,4.87156 -1.33708,1.36381 -2.97109,2.06296 -4.89641,2.06295 -1.92539,10e-6 -3.55748,-0.69913 -4.92128,-2.06295 -1.33705,-1.33703 -2.01324,-2.94619 -2.01323,-4.87156 l 0,-16.25509 -4.59817,0 z m 28.75711,0 0,27.83748 4.62302,0 0,-16.62793 9.29572,9.27087 9.27088,-9.27087 0,16.62793 4.69757,0 0,-27.83748 -13.96845,13.91874 -13.91874,-13.91874 z"
       style="font-size:74.92795562999999959px;font-style:normal;font-variant:normal;font-weight:normal;font-stretch:normal;text-align:start;line-height:100%;writing-mode:lr-tb;text-anchor:start;opacity:0.98999999000000005;fill:#1a1a1a;fill-opacity:1;fill-rule:nonzero;stroke:none;stroke-width:1;marker:none;visibility:visible;display:inline;overflow:visible;enable-background:accumulate;font-family:Museo Sans;-inkscape-font-specification:Museo Sans"
       sodipodi:nodetypes="ccccccccccccccsssccccccccssccccccccccsccccccsscccccccccccccc" />
    <g
       id="text3479"
       style="font-size:15.78708171999999976px;font-style:normal;font-variant:normal;font-weight:bold;font-stretch:normal;text-align:start;line-height:100%;writing-mode:lr-tb;text-anchor:start;fill:#000000;fill-opacity:1;fill-rule:nonzero;stroke:none;stroke-width:3.11843680999999995;marker:none;visibility:visible;display:inline;overflow:visible;enable-background:accumulate;font-family:Telegrafico;-inkscape-font-specification:Telegrafico Bold"
       transform="matrix(1.0760363,0,0,1.0760363,-617.0763,665.42824)">
      <path
         id="path36428"
         style="line-height:100%;fill:#000000;fill-opacity:1;marker:none;font-family:Telegrafico;-inkscape-font-specification:Telegrafico Bold"
         d="m 604.83781,68.725188 c 1.16581,8e-6 2.15756,0.412901 2.97526,1.238679 0.83387,0.825792 1.25081,1.817544 1.25082,2.975257 -10e-6,1.173915 -0.41695,2.165666 -1.25082,2.975258 -0.8177,0.825786 -1.80945,1.238679 -2.97526,1.238679 -1.16582,0 -2.15757,-0.412893 -2.97526,-1.238679 -0.82578,-0.817688 -1.23868,-1.809439 -1.23867,-2.975258 -10e-6,-1.157713 0.41289,-2.149465 1.23867,-2.975257 0.8096,-0.825778 1.80135,-1.238671 2.97526,-1.238679 m 0,1.408694 c -0.76912,7e-6 -1.43298,0.275268 -1.9916,0.825785 -0.54243,0.55053 -0.81364,1.210348 -0.81364,1.979457 0,0.769118 0.27121,1.432985 0.81364,1.991602 0.55862,0.542429 1.22248,0.813643 1.9916,0.813641 0.76911,2e-6 1.42893,-0.271212 1.97946,-0.813641 0.55052,-0.558617 0.82578,-1.222484 0.82579,-1.991602 -10e-6,-0.769109 -0.27527,-1.428927 -0.82579,-1.979457 -0.55053,-0.550517 -1.21035,-0.825778 -1.97946,-0.825785" />
      <path
         id="path36430"
         style="line-height:100%;fill:#000000;fill-opacity:1;marker:none;font-family:Telegrafico;-inkscape-font-specification:Telegrafico Bold"
         d="m 612.90488,70.133882 0,2.805242 2.81739,0 c 0.3805,5e-6 0.70838,-0.137626 0.98365,-0.412892 0.27526,-0.275257 0.41289,-0.603143 0.41289,-0.983657 0,-0.388599 -0.13763,-0.720532 -0.41289,-0.995801 -0.27527,-0.275255 -0.60315,-0.412885 -0.98365,-0.412892 l -2.81739,0 m 0,4.213936 0,2.805243 -1.39655,0 0,-8.427873 4.21394,0 c 0.7691,8e-6 1.42892,0.27527 1.97945,0.825786 0.55052,0.550531 0.82578,1.214397 0.82579,1.991601 -10e-6,0.769119 -0.27527,1.432985 -0.82579,1.991601 -0.55053,0.542431 -1.21035,0.813645 -1.97945,0.813642 l -2.81739,0" />
      <path
         id="path36432"
         style="line-height:100%;fill:#000000;fill-opacity:1;marker:none;font-family:Telegrafico;-inkscape-font-specification:Telegrafico Bold"
         d="m 626.55406,68.725188 0,1.408694 -4.21393,0 0,2.11304 4.21393,0 0,1.396549 -4.21393,0 0,2.100896 4.21393,0 0,1.408694 -5.61048,0 0,-8.427873 5.61048,0" />
      <path
         id="path36434"
         style="line-height:100%;fill:#000000;fill-opacity:1;marker:none;font-family:Telegrafico;-inkscape-font-specification:Telegrafico Bold"
         d="m 628.99129,68.713044 5.61048,5.051866 0,-5.051866 1.4087,0 0,8.427873 0,-0.01214 0,0.02429 -5.62263,-5.051866 0,5.039722 -1.39655,0 0,-8.427873" />
    </g>
    <text
       xml:space="preserve"
       style="font-size:16px;font-style:normal;font-variant:normal;font-weight:normal;font-stretch:normal;text-align:center;line-height:100%;writing-mode:lr-tb;text-anchor:middle;fill:#000000;fill-opacity:1;stroke:none;display:inline;font-family:Liberation Sans;-inkscape-font-specification:Liberation Sans"
       x="90.739311"
       y="798.92114"
       id="text15982"
       sodipodi:linespacing="100%"
       inkscape:export-filename="/home/aj/Projects/devseed/graphics/conferences/dcon_paris_2009/PDFs/sticker_atrium1.png"
       inkscape:export-xdpi="600.08252"
       inkscape:export-ydpi="600.08252"><tspan
         sodipodi:role="line"
         id="tspan15984"
         x="90.739311"
         y="798.92114"
         style="font-size:12px;font-style:normal;font-variant:normal;font-weight:normal;font-stretch:normal;text-align:center;line-height:100%;letter-spacing:1.47805499999999990;writing-mode:lr-tb;text-anchor:middle;fill:#000000;fill-opacity:1;font-family:SF Arborcrest Heavy;-inkscape-font-specification:'SF Arborcrest Heavy,'">www.openatrium.com</tspan></text>
    <text
       xml:space="preserve"
       style="font-size:40px;font-style:normal;font-weight:normal;fill:#000000;fill-opacity:1;stroke:none;font-family:Bitstream Vera Sans"
       x="-134"
       y="186"
       id="text3188"
       transform="translate(0,692.36)"><tspan
         sodipodi:role="line"
         id="tspan3190"
         x="-134"
         y="186" /></text>
  </g>
</svg>
